<?xml version="1.0" standalone="no"?>
<!DOCTYPE svg PUBLIC "-//W3C//DTD SVG 20010904//EN"
 "http://www.w3.org/TR/2001/REC-SVG-20010904/DTD/svg10.dtd">
<svg version="1.0" xmlns="http://www.w3.org/2000/svg"
 width="1024.000000pt" height="1024.000000pt" viewBox="0 0 1024.000000 1024.000000"
 preserveAspectRatio="xMidYMid meet">

<g transform="translate(0.000000,1024.000000) scale(0.100000,-0.100000)"
fill="#000000" stroke="none">
<path d="M0 5120 l0 -5120 5120 0 5120 0 0 5120 0 5120 -5120 0 -5120 0 0
-5120z m7965 3406 c19 -18 19 -18 0 -8 -11 6 -31 23 -45 39 l-25 28 25 -20
c13 -11 33 -28 45 -39z m-2410 -55 c263 -47 475 -118 714 -242 152 -78 475
-290 504 -330 27 -38 32 -98 10 -136 -27 -48 -473 -507 -511 -526 -68 -35
-106 -23 -267 82 -193 127 -392 212 -605 257 -112 24 -354 25 -457 2 -209 -48
-343 -186 -343 -356 0 -77 14 -121 59 -188 95 -141 229 -213 666 -356 646
-211 1002 -394 1250 -643 191 -191 286 -363 341 -617 25 -115 25 -393 0 -533
-59 -327 -210 -587 -479 -827 -138 -123 -255 -202 -412 -279 -233 -114 -432
-168 -703 -191 -248 -22 -535 15 -794 102 -126 42 -290 117 -294 135 -4 13
207 144 260 163 54 18 124 11 256 -26 157 -44 263 -56 462 -49 184 6 287 25
448 82 455 163 805 552 886 982 21 113 15 365 -11 463 -39 147 -131 297 -206
336 -16 8 -49 14 -74 14 -38 0 -52 -5 -76 -29 -16 -16 -29 -37 -29 -46 0 -9
18 -40 40 -69 130 -171 173 -425 110 -646 -61 -214 -255 -468 -461 -606 -183
-122 -415 -202 -634 -220 -85 -6 -255 8 -302 27 -26 10 -27 12 -10 23 69 43
555 356 612 394 107 72 245 214 283 292 89 180 60 347 -87 502 -151 161 -253
210 -781 373 -395 122 -602 210 -785 333 -533 358 -710 1028 -421 1599 159
316 456 561 826 682 150 49 263 72 460 95 19 2 125 3 235 1 148 -2 231 -9 320
-24z m2698 -200 c51 -49 104 -111 95 -111 -2 0 -43 41 -93 92 -96 98 -98 111
-2 19z m137 -146 c13 -14 21 -25 18 -25 -2 0 -15 11 -28 25 -13 14 -21 25 -18
25 2 0 15 -11 28 -25z m63 -68 c18 -18 39 -42 47 -52 14 -19 14 -19 -5 -5 -11
8 -28 25 -38 38 -10 12 -25 29 -33 37 -9 8 -12 15 -9 15 4 0 21 -15 38 -33z
m265 -333 c-4 -3 -12 5 -18 18 -12 22 -12 22 6 6 10 -10 15 -20 12 -24z m62
-83 c-1 -10 -50 53 -50 63 0 6 11 -5 25 -24 14 -19 25 -36 25 -39z m20 -11 c0
-5 -5 -10 -11 -10 -5 0 -7 5 -4 10 3 6 8 10 11 10 2 0 4 -4 4 -10z m100 -164
c0 -5 -9 1 -20 14 -11 13 -20 28 -20 34 0 13 39 -35 40 -48z m94 -162 c3 -8 2
-12 -4 -9 -6 3 -10 10 -10 16 0 14 7 11 14 -7z m-4648 -2022 c569 -356 631
-396 697 -444 69 -51 89 -86 70 -117 -5 -9 -36 -38 -69 -64 -57 -47 -106 -78
-319 -202 -92 -53 -200 -122 -533 -338 -136 -88 -183 -103 -240 -73 -64 33
-62 13 -62 680 0 531 2 611 16 645 21 52 65 81 125 81 43 0 67 -13 315 -168z
m-506 -2283 l0 -191 35 31 c63 55 93 66 180 66 64 0 89 -5 123 -23 171 -91
238 -302 150 -475 -93 -183 -338 -237 -458 -101 -16 19 -31 34 -33 34 -2 0 -2
-22 1 -50 l5 -50 -82 0 -81 0 0 475 0 475 80 0 80 0 0 -191z m-1218 170 c131
-28 223 -112 230 -211 l3 -33 -82 -3 c-76 -3 -83 -1 -83 17 0 48 -87 101 -165
101 -82 -1 -157 -72 -141 -135 12 -47 50 -69 198 -118 204 -66 277 -125 294
-234 22 -146 -47 -259 -189 -307 -71 -24 -226 -22 -304 5 -108 36 -193 134
-193 222 l0 37 79 0 c74 0 79 -1 85 -23 17 -68 95 -116 189 -117 103 0 162 41
162 112 0 58 -41 90 -152 123 -208 61 -281 104 -322 188 -30 61 -28 156 3 222
57 124 221 189 388 154z m3003 -38 c45 -23 76 -46 96 -74 34 -47 57 -113 43
-127 -5 -5 -42 -10 -82 -11 l-73 -2 -17 34 c-27 53 -74 79 -144 79 -89 0 -144
-36 -154 -102 -5 -27 -1 -40 21 -66 22 -26 50 -39 172 -78 216 -70 281 -120
305 -236 23 -108 -24 -219 -114 -272 -134 -78 -356 -70 -470 17 -63 48 -100
106 -106 166 l-5 51 81 0 80 0 23 -47 c32 -64 88 -93 176 -93 35 0 79 6 97 14
93 39 85 152 -13 194 -20 8 -80 27 -135 43 -157 45 -229 92 -267 174 -21 46
-25 135 -8 186 25 75 91 136 180 170 44 16 72 19 151 16 85 -3 105 -8 163 -36z
m467 -138 l3 -98 70 0 70 0 0 -65 0 -65 -73 -3 -73 -3 3 -179 c2 -123 7 -183
15 -191 7 -7 37 -14 68 -17 l55 -4 0 -59 c0 -56 -2 -60 -27 -70 -45 -17 -155
-5 -198 21 -66 41 -75 76 -75 303 l0 197 -50 0 -51 0 3 68 3 67 45 0 45 0 3
98 3 97 79 0 79 0 3 -97z m-2692 -106 c62 -27 114 -72 142 -123 30 -56 50
-159 39 -201 l-7 -28 -235 -2 -234 -2 3 -23 c7 -45 47 -101 86 -121 70 -36
184 -22 225 27 10 12 32 16 77 16 76 0 82 -13 35 -77 -61 -84 -140 -123 -250
-123 -181 0 -301 101 -333 279 -27 158 51 320 182 373 75 31 204 33 270 5z
m1476 -6 c60 -26 96 -60 121 -116 15 -34 18 -76 21 -282 l4 -243 -81 0 -81 0
0 47 0 47 -37 -36 c-53 -51 -99 -68 -185 -68 -88 0 -137 24 -181 86 -24 34
-29 51 -28 102 0 140 79 196 303 215 l129 11 -6 36 c-9 51 -29 77 -71 90 -55
19 -120 8 -155 -26 -27 -26 -37 -29 -100 -29 -78 0 -80 3 -49 65 59 115 251
164 396 101z m1895 0 c105 -50 168 -133 190 -253 10 -57 10 -76 -5 -135 -31
-127 -124 -225 -239 -254 -70 -17 -192 -7 -250 21 -61 29 -128 95 -157 157
-31 64 -39 201 -17 267 35 101 104 170 210 208 71 25 202 20 268 -11z m643 23
c13 -5 16 -23 16 -89 l0 -83 -35 8 c-72 16 -134 -12 -164 -73 -19 -39 -21 -61
-21 -235 l0 -192 -80 0 -80 0 0 325 0 325 79 0 80 0 3 -51 3 -52 25 39 c44 67
117 100 174 78z m539 -28 c95 -46 141 -122 154 -253 9 -97 19 -93 -249 -93
l-230 0 6 -32 c8 -41 33 -77 76 -105 57 -39 189 -27 229 20 10 13 30 17 77 17
72 0 76 -5 43 -60 -35 -58 -61 -81 -124 -111 -50 -24 -73 -29 -137 -29 -181 0
-302 104 -327 282 -25 178 55 327 202 380 79 28 205 21 280 -16z"/>
<path d="M3930 2751 c-19 -10 -48 -37 -65 -60 -27 -39 -30 -50 -30 -119 0 -90
16 -127 72 -169 32 -25 45 -28 108 -28 62 0 76 3 107 27 89 68 105 229 30 311
-50 55 -156 74 -222 38z"/>
<path d="M3190 2762 c-37 -18 -80 -74 -80 -103 0 -18 11 -19 160 -19 111 0
160 3 160 11 0 6 -10 29 -22 50 -39 70 -142 99 -218 61z"/>
<path d="M4653 2517 c-46 -17 -65 -40 -66 -80 -3 -95 139 -127 218 -49 32 31
55 80 55 117 0 25 0 25 -87 24 -49 0 -102 -6 -120 -12z"/>
<path d="M6542 2749 c-74 -37 -118 -145 -94 -233 27 -96 99 -151 187 -144 101
8 164 86 165 201 0 151 -129 240 -258 176z"/>
<path d="M7730 2769 c-44 -18 -100 -84 -100 -119 0 -6 55 -10 160 -10 179 0
181 1 140 68 -35 57 -134 87 -200 61z"/>
</g>
</svg>
